<svg width="21" height="21" viewBox="0 0 21 21" fill="none" xmlns="http://www.w3.org/2000/svg">
<path d="M8.97208 1.55673C9.40001 1.19714 9.94105 1 10.5 1C11.059 1 11.6 1.19714 12.0279 1.55673L19.1529 7.54807C19.4181 7.77093 19.6314 8.04911 19.7777 8.36311C19.924 8.67711 19.9999 9.01931 20 9.36573V19.317C20 19.7369 19.8332 20.1396 19.5363 20.4366C19.2393 20.7335 18.8366 20.9003 18.4167 20.9003H14.0625C13.6426 20.9003 13.2398 20.7335 12.9429 20.4366C12.646 20.1396 12.4792 19.7369 12.4792 19.317V13.7753H8.52083V19.317C8.52083 19.7369 8.35402 20.1396 8.05709 20.4366C7.76015 20.7335 7.35743 20.9003 6.9375 20.9003H2.58333C2.16341 20.9003 1.76068 20.7335 1.46375 20.4366C1.16681 20.1396 1 19.7369 1 19.317V9.36494C1.00009 9.01852 1.07596 8.67632 1.22229 8.36232C1.36862 8.04832 1.58187 7.77014 1.84708 7.54727L8.97208 1.55594V1.55673ZM11.0098 2.76798C10.8671 2.64784 10.6866 2.58196 10.5 2.58196C10.3134 2.58196 10.1329 2.64784 9.99017 2.76798L2.86517 8.7609C2.7771 8.83504 2.70625 8.92749 2.65758 9.03181C2.6089 9.13614 2.58357 9.24982 2.58333 9.36494V19.3162H6.9375V13.7745C6.9375 13.3546 7.10432 12.9519 7.40125 12.6549C7.69818 12.358 8.10091 12.1912 8.52083 12.1912H12.4792C12.8991 12.1912 13.3018 12.358 13.5988 12.6549C13.8957 12.9519 14.0625 13.3546 14.0625 13.7745V19.3162H18.4167V9.36494C18.4167 9.24956 18.3914 9.13556 18.3428 9.03095C18.2941 8.92633 18.2231 8.83363 18.1348 8.75932L11.0098 2.76798Z" fill="#181818" stroke="#181818" stroke-width="0.2"/>
</svg>
